<?xml version="1.0" ?><svg height="32" id="svg5" version="1.1" viewBox="0 0 32 32" width="32" xmlns="http://www.w3.org/2000/svg" xmlns:svg="http://www.w3.org/2000/svg"><defs id="defs2"/><g id="layer1" transform="translate(-108,-196)"><path d="m 124,211 a 1.0001,1.0001 0 0 0 -0.72266,0.30859 c 0,0 -1.28586,1.34455 -2.57617,3.05274 C 119.41086,216.06952 118,218.01574 118,220 c 0,3.30186 2.69814,6 6,6 3.30186,0 6,-2.69814 6,-6 0,-1.98426 -1.41086,-3.93048 -2.70117,-5.63867 -1.29031,-1.70819 -2.57617,-3.05274 -2.57617,-3.05274 A 1.0001,1.0001 0 0 0 124,211 Z m 0,2.54883 c 0.43261,0.47455 0.85221,0.89367 1.70117,2.01758 C 126.91086,217.16786 128,219.22284 128,220 c 0,2.22098 -1.77902,4 -4,4 -2.22098,0 -4,-1.77902 -4,-4 0,-0.77716 1.08914,-2.83214 2.29883,-4.43359 0.84896,-1.12391 1.26856,-1.54303 1.70117,-2.01758 z" id="path32823" style="color:#000000;fill:#00c89f;fill-opacity:1;fill-rule:evenodd;stroke-linecap:round;stroke-linejoin:round;stroke-miterlimit:4.1;-inkscape-stroke:none"/><path d="m 124.18945,198.01758 a 1.0001,1.0001 0 0 0 -0.91211,0.29101 c 0,0 -2.53586,2.65457 -5.07617,6.01758 C 115.66086,207.68918 113,211.63503 113,215 c 0,6.06328 4.93672,11 11,11 6.06328,0 11,-4.93672 11,-11 0,-0.68886 -0.18069,-1.468 -0.44727,-2.43555 -0.26657,-0.96754 -0.63222,-2.07885 -1.04492,-3.20703 -0.82539,-2.25635 -1.81083,-4.53977 -2.66211,-5.89062 a 1.0001,1.0001 0 0 0 -1.77343,0.16211 L 128,206.30859 l -3.07227,-7.67968 a 1.0001,1.0001 0 0 0 -0.73828,-0.61133 z m -0.5,2.89844 3.38282,8.45507 a 1.0001,1.0001 0 0 0 1.85546,0 l 1.13086,-2.82617 c 0.53642,1.12587 1.06537,2.11963 1.57032,3.5 0.39763,1.08702 0.74975,2.15667 0.99609,3.05078 0.24634,0.89411 0.375,1.65783 0.375,1.9043 0,4.98239 -4.01761,9 -9,9 -4.98239,0 -9,-4.01761 -9,-9 0,-2.15786 2.33914,-6.21247 4.79883,-9.46875 1.94375,-2.57325 3.15912,-3.82481 3.89062,-4.61523 z" id="path25424" style="color:#000000;fill:#002cba;fill-opacity:1;fill-rule:evenodd;stroke-linecap:round;stroke-linejoin:round;stroke-miterlimit:4.1;-inkscape-stroke:none"/></g></svg>